#B2_BricksWall_7678_260.obj

v -7.509381E-05 0.0002165967 157.4805
v 157.4805 3.275669E-05 -1.243928E-05
v -7.509381E-05 0.0002165967 -4.975712E-05
v 157.4805 0.0001547819 157.4803

vn -2.026558E-06 -7.533021E-14 1
vn -2.026558E-06 -7.533021E-14 1
vn -2.026558E-06 -7.533021E-14 1
vn -2.026558E-06 -7.533021E-14 1

vt 0.2915108 0.8829397
vt 0.3566217 0.8178289
vt 0.3566217 0.8829397
vt 0.2915108 0.8178289

g B2_BricksWall_7678_260
usemtl B2_BricksWall_7678_260
usemap B2_BricksWall_7678_260
f 1/1/1 3/3/3 2/2/2
f 2/2/2 4/4/4 1/1/1
