#B2_BricksWall_6651_143.obj

v -7.509378E-05 0.0002025169 157.4805
v 157.4805 4.597023E-06 -1.243928E-05
v -7.509378E-05 0.0002025169 -4.975712E-05
v 157.4805 0.0001172357 157.4803

vn -2.026558E-06 -7.533021E-14 1
vn -2.026558E-06 -7.533021E-14 1
vn -2.026558E-06 -7.533021E-14 1
vn -2.026558E-06 -7.533021E-14 1

vt 0.2915108 0.8829397
vt 0.3566217 0.8178289
vt 0.3566217 0.8829397
vt 0.2915108 0.8178289

g B2_BricksWall_6651_143
usemtl B2_BricksWall_6651_143
usemap B2_BricksWall_6651_143
f 1/1/1 3/3/3 2/2/2
f 2/2/2 4/4/4 1/1/1
