#B2_BricksWall_7217_206.obj

v -0.0003003714 0.0002214373 157.4804
v 157.4803 -5.711419E-05 6.219642E-05
v -0.0001501865 0.0002004684 -6.219644E-05
v 157.4802 0.0001368828 157.4804

vn -2.503395E-06 -3.428064E-08 1
vn -2.503395E-06 -3.428064E-08 1
vn -2.503395E-06 -3.428064E-08 1
vn -2.503395E-06 -3.428064E-08 1

vt 0.2915108 0.8829397
vt 0.3566217 0.8178289
vt 0.3566217 0.8829397
vt 0.2915108 0.8178289

g B2_BricksWall_7217_206
usemtl B2_BricksWall_7217_206
usemap B2_BricksWall_7217_206
f 1/1/1 3/3/3 2/2/2
f 2/2/2 4/4/4 1/1/1
