#B2_BricksWall_6750_105.obj

v -0.0003003718 0.0003059715 157.4804
v 157.4803 0.0001455979 7.463568E-05
v -0.0001501869 0.0002850021 -4.975717E-05
v 157.4802 0.0001665672 157.4804

vn -2.503395E-06 -7.898947E-08 1
vn -2.503395E-06 -7.898947E-08 1
vn -2.503395E-06 -7.898947E-08 1
vn -2.503395E-06 -7.898947E-08 1

vt 0.2915108 0.8829397
vt 0.3566217 0.8178289
vt 0.3566217 0.8829397
vt 0.2915108 0.8178289

g B2_BricksWall_6750_105
usemtl B2_BricksWall_6750_105
usemap B2_BricksWall_6750_105
f 1/1/1 3/3/3 2/2/2
f 2/2/2 4/4/4 1/1/1
