#B2_BricksWall_6481_63.obj

v -0.0001976702 8.919723E-05 157.4804
v 157.4804 -0.0001678767 7.509249E-05
v 9.067028E-06 6.822772E-05 -3.754624E-05
v 157.4803 3.277847E-06 157.4804

vn -1 -5.960465E-08 -1.2815E-06
vn -1 -5.960465E-08 -1.2815E-06
vn -1 -5.960465E-08 -1.2815E-06
vn -1 -5.960465E-08 -1.2815E-06

vt 0.2915108 0.8829397
vt 0.3566217 0.8178289
vt 0.3566217 0.8829397
vt 0.2915108 0.8178289

g B2_BricksWall_6481_63
usemtl B2_BricksWall_6481_63
usemap B2_BricksWall_6481_63
f 1/1/1 3/3/3 2/2/2
f 2/2/2 4/4/4 1/1/1
