#B2_BricksWall_7465_182.obj

v -0.0003754641 0.0002308788 157.4804
v 157.4802 -4.587291E-06 7.509247E-05
v -7.509423E-05 0.0002099099 -3.754626E-05
v 157.4802 0.0001665674 157.4804

vn -2.44379E-06 -1.192093E-07 1
vn -2.44379E-06 -1.192093E-07 1
vn -2.44379E-06 -1.192093E-07 1
vn -2.44379E-06 -1.192093E-07 1

vt 0.2915108 0.8829397
vt 0.3566217 0.8178289
vt 0.3566217 0.8829397
vt 0.2915108 0.8178289

g B2_BricksWall_7465_182
usemtl B2_BricksWall_7465_182
usemap B2_BricksWall_7465_182
f 1/1/1 3/3/3 2/2/2
f 2/2/2 4/4/4 1/1/1
