#B4_BricksWall_6975_0.obj

v 0.0005144732 0.0002384593 157.4805
v 157.4811 0.0005144631 0.0001126387
v 0.0005707926 0.0002384594 -5.529867E-20
v 157.481 0.0005144631 157.4806

vn 1 1.192093E-07 -9.536743E-07
vn 1 1.192093E-07 -9.536743E-07
vn 1 1.192093E-07 -9.536743E-07
vn 1 1.192093E-07 -9.536743E-07

vt 0.8690231 0.9330142
vt 0.9334379 0.8685994
vt 0.9334379 0.9330142
vt 0.8690231 0.8685994

g B4_BricksWall_6975_0
usemtl B4_BricksWall_6975_0
usemap B4_BricksWall_6975_0
f 1/1/1 3/3/3 2/2/2
f 2/2/2 4/4/4 1/1/1
