#B4_BricksWall_6824_140.obj

v -3.3153E-05 2.57772E-10 157.4805
v 157.4805 5.85163E-05 0.0001126387
v 2.316637E-05 3.754651E-05 -5.379832E-22
v 157.4805 2.097006E-05 157.4805

vn 1 1.192093E-07 5.960464E-08
vn 1 1.192093E-07 5.960464E-08
vn 1 1.192093E-07 5.960464E-08
vn 1 1.192093E-07 5.960464E-08

vt 0.8690231 0.9330142
vt 0.9334379 0.8685994
vt 0.9334379 0.9330142
vt 0.8690231 0.8685994

g B4_BricksWall_6824_140
usemtl B4_BricksWall_6824_140
usemap B4_BricksWall_6824_140
f 1/1/1 3/3/3 2/2/2
f 2/2/2 4/4/4 1/1/1
