#B4_BricksWall_6979_255.obj

v 0.0005285529 0.0005520092 157.4805
v 157.4811 0.000828013 0.0001067721
v 0.0005895655 0.0005520093 -3.839885E-20
v 157.4811 0.0008280129 157.4805

vn 1 1.192093E-07 -9.536743E-07
vn 1 1.192093E-07 -9.536743E-07
vn 1 1.192093E-07 -9.536743E-07
vn 1 1.192093E-07 -9.536743E-07

vt 0.8690231 0.9330142
vt 0.9334379 0.8685994
vt 0.9334379 0.9330142
vt 0.8690231 0.8685994

g B4_BricksWall_6979_255
usemtl B4_BricksWall_6979_255
usemap B4_BricksWall_6979_255
f 1/1/1 3/3/3 2/2/2
f 2/2/2 4/4/4 1/1/1
