#B4_BricksWall_6823_98.obj

v -0.0001833374 -4.194487E-05 157.4804
v 157.4804 -3.036162E-05 0.0001126387
v -0.0001082449 -4.194486E-05 2.568297E-21
v 157.4803 -3.036163E-05 157.4805

vn 5.960463E-08 0 -0.9999999
vn 5.960463E-08 0 -0.9999999
vn 5.960463E-08 0 -0.9999999
vn 5.960463E-08 0 -0.9999999

vt 0.8690231 0.9330142
vt 0.9334379 0.8685994
vt 0.9334379 0.9330142
vt 0.8690231 0.8685994

g B4_BricksWall_6823_98
usemtl B4_BricksWall_6823_98
usemap B4_BricksWall_6823_98
f 1/1/1 3/3/3 2/2/2
f 2/2/2 4/4/4 1/1/1
