#B4_BricksWall_6829_40.obj

v -2.376429E-05 -0.0001292149 157.4805
v 157.4806 -7.069886E-05 0.0001067721
v 4.194164E-05 -9.166865E-05 -1.07491E-20
v 157.4805 -0.0001082451 157.4805

vn 1 1.192093E-07 5.960464E-08
vn 1 1.192093E-07 5.960464E-08
vn 1 1.192093E-07 5.960464E-08
vn 1 1.192093E-07 5.960464E-08

vt 0.8690231 0.9330142
vt 0.9334379 0.8685994
vt 0.9334379 0.9330142
vt 0.8690231 0.8685994

g B4_BricksWall_6829_40
usemtl B4_BricksWall_6829_40
usemap B4_BricksWall_6829_40
f 1/1/1 3/3/3 2/2/2
f 2/2/2 4/4/4 1/1/1
