#B4_BricksWall_6524_18.obj

v 0.0004769253 -0.0001126369 157.4804
v 157.4811 0.000163367 9.386559E-05
v 0.0005520178 -0.0001126368 -1.877312E-05
v 157.481 0.0001633669 157.4805

vn 1 1.192093E-07 -9.536743E-07
vn 1 1.192093E-07 -9.536743E-07
vn 1 1.192093E-07 -9.536743E-07
vn 1 1.192093E-07 -9.536743E-07

vt 0.8690231 0.9330142
vt 0.9334379 0.8685994
vt 0.9334379 0.9330142
vt 0.8690231 0.8685994

g B4_BricksWall_6524_18
usemtl B4_BricksWall_6524_18
usemap B4_BricksWall_6524_18
f 1/1/1 3/3/3 2/2/2
f 2/2/2 4/4/4 1/1/1
