#B4_BricksWall_6516_188.obj

v 0.0005144835 0.0001633668 157.4805
v 157.4811 0.0004393706 0.0001067721
v 0.0005708028 0.0001633669 -5.989786E-20
v 157.481 0.0004393706 157.4805

vn 1 1.192093E-07 -9.536743E-07
vn 1 1.192093E-07 -9.536743E-07
vn 1 1.192093E-07 -9.536743E-07
vn 1 1.192093E-07 -9.536743E-07

vt 0.8690231 0.9330142
vt 0.9334379 0.8685994
vt 0.9334379 0.9330142
vt 0.8690231 0.8685994

g B4_BricksWall_6516_188
usemtl B4_BricksWall_6516_188
usemap B4_BricksWall_6516_188
f 1/1/1 3/3/3 2/2/2
f 2/2/2 4/4/4 1/1/1
