#B5_FirstFloor_6927_45.obj

v 367.4542 5.62446E-07 -13.97516
v 367.4542 109.4489 -13.97517
v 419.9477 109.4489 -13.97511
v 419.9477 5.624487E-07 -13.9751
v 419.9477 2.461805E-12 5.631953E-05
v 472.4409 157.4805 -3.97367E-05
v 472.4409 -1.436051E-12 -3.285302E-05
v 419.9477 109.4489 5.153536E-05
v 314.9607 157.4805 7.759538E-05
v 367.4542 109.4489 -9.477374E-06
v 367.4542 -2.051467E-13 -4.69321E-06
v 314.9607 3.692698E-12 8.447907E-05
v 419.9477 2.461805E-12 5.631953E-05
v 419.9477 5.624487E-07 -13.9751
v 419.9477 109.4489 -13.97511
v 419.9477 109.4489 5.153536E-05
v 419.9477 109.4489 5.153536E-05
v 419.9477 109.4489 -13.97511
v 367.4542 109.4489 -13.97517
v 367.4542 109.4489 -9.477374E-06
v 367.4542 109.4489 -9.477374E-06
v 367.4542 109.4489 -13.97517
v 367.4542 5.62446E-07 -13.97516
v 367.4542 -2.051467E-13 -4.69321E-06
v 173.6048 107.1584 -3.275017
v 298.854 107.1584 -3.275022
v 298.854 107.1584 -13.18633
v 173.6048 107.1584 -13.18632
v 173.6048 129.5765 2.975679
v 173.6048 129.5765 -13.18632
v 298.854 129.5765 -13.18633
v 298.854 129.5765 2.975674
v 173.6048 107.1584 -3.275017
v 173.6048 118.3674 3.981918
v 298.854 118.3674 3.981914
v 298.854 107.1584 -3.275022
v 298.854 129.5765 -13.18633
v 298.854 107.1584 -13.18633
v 298.854 107.1584 -3.275022
v 298.854 118.3674 3.981914
v 298.854 129.5765 2.975674
v 173.6048 118.3674 3.981918
v 173.6048 107.1584 -3.275017
v 173.6048 107.1584 -13.18632
v 173.6048 129.5765 -13.18632
v 173.6048 129.5765 2.975679
v 298.854 118.3674 3.981914
v 173.6048 118.3674 3.981918
v 173.6048 129.5765 2.975679
v 298.854 129.5765 2.975674
v 171.8778 5.390523E-07 -14.51035
v 171.8778 129.9214 -14.51035
v 300.563 129.9214 -14.51036
v 300.563 5.390523E-07 -14.51035
v 300.563 2.961217E-12 6.774476E-05
v 314.9607 157.4805 7.759538E-05
v 314.9607 3.692698E-12 8.447907E-05
v 300.563 129.9214 6.206572E-05
v 171.8779 129.9214 6.268123E-05
v 157.4802 157.4805 4.474219E-05
v 157.4802 2.256639E-12 5.162588E-05
v 171.8779 2.988123E-12 6.836028E-05
v 300.563 2.961217E-12 6.774476E-05
v 300.563 5.390523E-07 -14.51035
v 300.563 129.9214 -14.51036
v 300.563 129.9214 6.206572E-05
v 300.563 129.9214 6.206572E-05
v 300.563 129.9214 -14.51036
v 171.8778 129.9214 -14.51035
v 171.8779 129.9214 6.268123E-05
v 171.8779 129.9214 6.268123E-05
v 171.8778 129.9214 -14.51035
v 171.8778 5.390523E-07 -14.51035
v 171.8779 2.988123E-12 6.836028E-05
v 104.9868 5.624458E-07 -13.97517
v 52.49326 5.624497E-07 -13.97508
v 52.49326 109.4489 -13.97508
v 104.9868 109.4489 -13.97517
v 52.49324 3.487535E-12 7.978551E-05
v -2.181981E-11 8.20599E-13 1.877312E-05
v -2.181981E-11 157.4805 1.188943E-05
v 52.49324 109.4489 7.500134E-05
v 157.4802 157.4805 4.474219E-05
v 104.9868 109.4489 -1.417085E-05
v 104.9868 -4.103052E-13 -9.386688E-06
v 157.4802 2.256639E-12 5.162588E-05
v 52.49324 3.487535E-12 7.978551E-05
v 52.49324 109.4489 7.500134E-05
v 52.49326 109.4489 -13.97508
v 52.49326 5.624497E-07 -13.97508
v 52.49324 109.4489 7.500134E-05
v 104.9868 109.4489 -1.417085E-05
v 104.9868 109.4489 -13.97517
v 52.49326 109.4489 -13.97508
v 104.9868 109.4489 -1.417085E-05
v 104.9868 -4.103052E-13 -9.386688E-06
v 104.9868 5.624458E-07 -13.97517
v 104.9868 109.4489 -13.97517
v 157.4802 157.4805 4.474219E-05
v -2.181981E-11 157.4805 1.188943E-05
v 2.022398E-05 157.4805 -17.40011
v 157.4802 157.4805 -17.40008
v 157.4802 157.4805 4.474219E-05
v 157.4802 157.4805 -17.40008
v 314.9607 157.4805 -17.4002
v 314.9607 157.4805 7.759538E-05
v 314.9607 157.4805 7.759538E-05
v 314.9607 157.4805 -17.4002
v 472.441 157.4805 -17.40017
v 472.4409 157.4805 -3.97367E-05

vn 1.16229E-06 -4.371139E-08 1
vn 1.16229E-06 -4.371139E-08 1
vn 1.16229E-06 -4.371139E-08 1
vn 1.16229E-06 -4.371139E-08 1
vn 1.16229E-06 -4.371139E-08 1
vn 1.16229E-06 -4.371139E-08 1
vn 1.16229E-06 -4.371139E-08 1
vn 1.16229E-06 -4.371139E-08 1
vn 1.16229E-06 -4.371139E-08 1
vn 1.16229E-06 -4.371139E-08 1
vn 1.16229E-06 -4.371139E-08 1
vn 1.16229E-06 -4.371139E-08 1
vn -1 0 1.16229E-06
vn -1 0 1.16229E-06
vn -1 0 1.16229E-06
vn -1 0 1.16229E-06
vn -5.080533E-14 -1 -4.371139E-08
vn -5.080533E-14 -1 -4.371139E-08
vn -5.080533E-14 -1 -4.371139E-08
vn -5.080533E-14 -1 -4.371139E-08
vn 1 0 -1.16229E-06
vn 1 0 -1.16229E-06
vn 1 0 -1.16229E-06
vn 1 0 -1.16229E-06
vn -5.080533E-14 -1 -4.371139E-08
vn -5.080533E-14 -1 -4.371139E-08
vn -5.080533E-14 -1 -4.371139E-08
vn -5.080533E-14 -1 -4.371139E-08
vn 5.080533E-14 1 4.371139E-08
vn 5.080533E-14 1 4.371139E-08
vn 5.080533E-14 1 4.371139E-08
vn 5.080533E-14 1 4.371139E-08
vn 9.756646E-07 -0.5434636 0.8394327
vn 9.756646E-07 -0.5434636 0.8394327
vn 9.756646E-07 -0.5434636 0.8394327
vn 9.756646E-07 -0.5434636 0.8394327
vn 1 0 -1.16229E-06
vn 1 0 -1.16229E-06
vn 1 0 -1.16229E-06
vn 1 0 -1.16229E-06
vn 1 0 -1.16229E-06
vn -1 0 1.16229E-06
vn -1 0 1.16229E-06
vn -1 0 1.16229E-06
vn -1 0 1.16229E-06
vn -1 0 1.16229E-06
vn 1.157636E-06 0.08940571 0.9959953
vn 1.157636E-06 0.08940569 0.9959953
vn 1.157636E-06 0.08940571 0.9959953
vn 1.157636E-06 0.08940571 0.9959953
vn 1.16229E-06 -4.371139E-08 1
vn 1.16229E-06 -4.371139E-08 1
vn 1.16229E-06 -4.371139E-08 1
vn 1.16229E-06 -4.371139E-08 1
vn 1.16229E-06 -4.371139E-08 1
vn 1.16229E-06 -4.371139E-08 1
vn 1.16229E-06 -4.371139E-08 1
vn 1.16229E-06 -4.371139E-08 1
vn 1.16229E-06 -4.371139E-08 1
vn 1.16229E-06 -4.371139E-08 1
vn 1.16229E-06 -4.371139E-08 1
vn 1.16229E-06 -4.371139E-08 1
vn -1 0 1.16229E-06
vn -1 0 1.16229E-06
vn -1 0 1.16229E-06
vn -1 0 1.16229E-06
vn -5.080533E-14 -1 -4.371139E-08
vn -5.080533E-14 -1 -4.371139E-08
vn -5.080533E-14 -1 -4.371139E-08
vn -5.080533E-14 -1 -4.371139E-08
vn 1 0 -1.16229E-06
vn 1 0 -1.16229E-06
vn 1 0 -1.16229E-06
vn 1 0 -1.16229E-06
vn 1.16229E-06 -4.371139E-08 1
vn 1.16229E-06 -4.371139E-08 1
vn 1.16229E-06 -4.371139E-08 1
vn 1.16229E-06 -4.371139E-08 1
vn 1.16229E-06 -4.371139E-08 1
vn 1.16229E-06 -4.371139E-08 1
vn 1.16229E-06 -4.371139E-08 1
vn 1.16229E-06 -4.371139E-08 1
vn 1.16229E-06 -4.371139E-08 1
vn 1.16229E-06 -4.371139E-08 1
vn 1.16229E-06 -4.371139E-08 1
vn 1.16229E-06 -4.371139E-08 1
vn 1 0 -1.16229E-06
vn 1 0 -1.16229E-06
vn 1 0 -1.16229E-06
vn 1 0 -1.16229E-06
vn -5.080533E-14 -1 -4.371139E-08
vn -5.080533E-14 -1 -4.371139E-08
vn -5.080533E-14 -1 -4.371139E-08
vn -5.080533E-14 -1 -4.371139E-08
vn -1 0 1.16229E-06
vn -1 0 1.16229E-06
vn -1 0 1.16229E-06
vn -1 0 1.16229E-06
vn 5.080533E-14 1 4.371139E-08
vn 5.080533E-14 1 4.371139E-08
vn 5.080533E-14 1 4.371139E-08
vn 5.080533E-14 1 4.371139E-08
vn 5.080533E-14 1 4.371139E-08
vn 5.080533E-14 1 4.371139E-08
vn 5.080533E-14 1 4.371139E-08
vn 5.080533E-14 1 4.371139E-08
vn 5.080533E-14 1 4.371139E-08
vn 5.080533E-14 1 4.371139E-08
vn 5.080533E-14 1 4.371139E-08
vn 5.080533E-14 1 4.371139E-08

vt 0.3417172 0.6774407
vt 0.3417172 0.7287168
vt 0.3663101 0.7287168
vt 0.3663101 0.6774407
vt 0.4511271 0.6754305
vt 0.47572 0.7492091
vt 0.47572 0.6754305
vt 0.4511271 0.7267067
vt 0.4019413 0.7492091
vt 0.4265342 0.7267067
vt 0.4265342 0.6754305
vt 0.4019413 0.6754305
vt 0.3728573 0.6774407
vt 0.3663101 0.6774407
vt 0.3663101 0.7287168
vt 0.3728574 0.7287168
vt 0.3663101 0.735264
vt 0.3663101 0.7287168
vt 0.3417172 0.7287168
vt 0.3417172 0.7352641
vt 0.33517 0.7287168
vt 0.3417172 0.7287168
vt 0.3417172 0.6774407
vt 0.3351699 0.6774407
vt 0.4813724 0.7370011
vt 0.4813724 0.6783226
vt 0.4767289 0.6783226
vt 0.4767289 0.7370011
vt 0.4917802 0.7370011
vt 0.499352 0.7370011
vt 0.499352 0.6783226
vt 0.4917802 0.6783226
vt 0.4813724 0.7370011
vt 0.4876282 0.7370011
vt 0.4876282 0.6783226
vt 0.4813724 0.6783226
vt 0.499352 0.6783226
vt 0.499352 0.6678198
vt 0.4947087 0.6678198
vt 0.4913088 0.6730712
vt 0.4917802 0.6783226
vt 0.4913088 0.7422525
vt 0.4947087 0.7475039
vt 0.499352 0.7475039
vt 0.499352 0.7370011
vt 0.4917802 0.7370011
vt 0.4876282 0.6783226
vt 0.4876282 0.7370011
vt 0.4917802 0.7370011
vt 0.4917802 0.6783226
vt 0.2581366 0.681708
vt 0.2581366 0.7425753
vt 0.3184248 0.7425755
vt 0.3184248 0.681708
vt 0.3939543 0.6754732
vt 0.4006996 0.7492518
vt 0.4006996 0.6754732
vt 0.3939543 0.7363406
vt 0.3336661 0.7363406
vt 0.3269209 0.7492518
vt 0.3269209 0.6754732
vt 0.3336661 0.6754732
vt 0.3252228 0.681708
vt 0.3184248 0.681708
vt 0.3184248 0.7425755
vt 0.3252228 0.7425755
vt 0.3184248 0.7493733
vt 0.3184248 0.7425755
vt 0.2581366 0.7425753
vt 0.2581366 0.7493733
vt 0.2513386 0.7425753
vt 0.2581366 0.7425753
vt 0.2581366 0.681708
vt 0.2513386 0.681708
vt 0.3417172 0.6774407
vt 0.3663101 0.6774407
vt 0.3663101 0.7287168
vt 0.3417172 0.7287168
vt 0.4511271 0.6754305
vt 0.47572 0.6754305
vt 0.47572 0.7492091
vt 0.4511271 0.7267067
vt 0.4019413 0.7492091
vt 0.4265342 0.7267067
vt 0.4265342 0.6754305
vt 0.4019413 0.6754305
vt 0.3728573 0.6774407
vt 0.3728574 0.7287168
vt 0.3663101 0.7287168
vt 0.3663101 0.6774407
vt 0.3663101 0.735264
vt 0.3417172 0.7352641
vt 0.3417172 0.7287168
vt 0.3663101 0.7287168
vt 0.33517 0.7287168
vt 0.3351699 0.6774407
vt 0.3417172 0.6774407
vt 0.3417172 0.7287168
vt 0.3885283 0.575285
vt 0.4157637 0.575285
vt 0.4157637 0.5834368
vt 0.3885283 0.5834368
vt 0.2879011 0.5802019
vt 0.2879011 0.5883538
vt 0.3151366 0.5883538
vt 0.3151366 0.5802019
vt 0.3885283 0.575285
vt 0.3885283 0.5834368
vt 0.4157637 0.5834368
vt 0.4157637 0.575285

g B5_FirstFloor_6927_45
usemtl B5_FirstFloor_6927_45
usemap B5_FirstFloor_6927_45
f 1/1/1 3/3/3 2/2/2
f 1/1/1 4/4/4 3/3/3
f 5/5/5 7/7/7 6/6/6
f 5/5/5 6/6/6 8/8/8
f 8/8/8 6/6/6 9/9/9
f 8/8/8 9/9/9 10/10/10
f 9/9/9 11/11/11 10/10/10
f 9/9/9 12/12/12 11/11/11
f 13/13/13 15/15/15 14/14/14
f 13/13/13 16/16/16 15/15/15
f 17/17/17 19/19/19 18/18/18
f 17/17/17 20/20/20 19/19/19
f 21/21/21 23/23/23 22/22/22
f 21/21/21 24/24/24 23/23/23
f 25/25/25 27/27/27 26/26/26
f 25/25/25 28/28/28 27/27/27
f 29/29/29 31/31/31 30/30/30
f 29/29/29 32/32/32 31/31/31
f 33/33/33 35/35/35 34/34/34
f 33/33/33 36/36/36 35/35/35
f 37/37/37 39/39/39 38/38/38
f 39/39/39 37/37/37 40/40/40
f 40/40/40 37/37/37 41/41/41
f 42/42/42 44/44/44 43/43/43
f 44/44/44 42/42/42 45/45/45
f 45/45/45 42/42/42 46/46/46
f 47/47/47 49/49/49 48/48/48
f 47/47/47 50/50/50 49/49/49
f 51/51/51 53/53/53 52/52/52
f 51/51/51 54/54/54 53/53/53
f 55/55/55 57/57/57 56/56/56
f 55/55/55 56/56/56 58/58/58
f 59/59/59 58/58/58 56/56/56
f 59/59/59 56/56/56 60/60/60
f 59/59/59 60/60/60 61/61/61
f 59/59/59 61/61/61 62/62/62
f 63/63/63 65/65/65 64/64/64
f 63/63/63 66/66/66 65/65/65
f 67/67/67 69/69/69 68/68/68
f 67/67/67 70/70/70 69/69/69
f 71/71/71 73/73/73 72/72/72
f 71/71/71 74/74/74 73/73/73
f 75/75/75 77/77/77 76/76/76
f 75/75/75 78/78/78 77/77/77
f 79/79/79 81/81/81 80/80/80
f 79/79/79 82/82/82 81/81/81
f 82/82/82 83/83/83 81/81/81
f 82/82/82 84/84/84 83/83/83
f 83/83/83 84/84/84 85/85/85
f 83/83/83 85/85/85 86/86/86
f 87/87/87 89/89/89 88/88/88
f 87/87/87 90/90/90 89/89/89
f 91/91/91 93/93/93 92/92/92
f 91/91/91 94/94/94 93/93/93
f 95/95/95 97/97/97 96/96/96
f 95/95/95 98/98/98 97/97/97
f 99/99/99 101/101/101 100/100/100
f 99/99/99 102/102/102 101/101/101
f 103/103/103 105/105/105 104/104/104
f 103/103/103 106/106/106 105/105/105
f 107/107/107 109/109/109 108/108/108
f 107/107/107 110/110/110 109/109/109
