#B5_MiddleFloorSide_6939_194.obj

v 11.94172 127.9529 367.4535
v 11.94168 29.52762 419.947
v 11.94172 29.52762 367.4535
v 11.94167 127.9529 419.947
v 0.0002206185 29.52762 367.4534
v 11.94172 127.9529 367.4535
v 11.94172 29.52762 367.4535
v 0.0002120139 127.9529 367.4534
v 0.0002120139 127.9529 367.4534
v 11.94167 127.9529 419.947
v 11.94172 127.9529 367.4535
v 0.0001654546 127.9529 419.947
v 0.0001654546 127.9529 419.947
v 11.94168 29.52762 419.947
v 11.94167 127.9529 419.947
v 0.0001740592 29.52762 419.947
v 0.0001740592 29.52762 419.947
v 11.94172 29.52762 367.4535
v 11.94168 29.52762 419.947
v 0.0002206185 29.52762 367.4534
v 11.94171 127.9529 209.974
v 11.94167 29.52758 262.4674
v 11.94171 29.52758 209.974
v 11.94166 127.9529 262.4675
v 0.0002101104 29.52758 209.974
v 11.94171 127.9529 209.974
v 11.94171 29.52758 209.974
v 0.0002015058 127.9529 209.974
v 0.0002015058 127.9529 209.974
v 11.94166 127.9529 262.4675
v 11.94171 127.9529 209.974
v 0.0001549465 127.9529 262.4675
v 0.0001549465 127.9529 262.4675
v 11.94167 29.52758 262.4674
v 11.94166 127.9529 262.4675
v 0.0001635512 29.52758 262.4674
v 0.0001635512 29.52758 262.4674
v 11.94171 29.52758 209.974
v 11.94167 29.52758 262.4674
v 0.0002101104 29.52758 209.974
v 11.94165 127.9529 104.987
v 11.9417 29.52758 52.49349
v 11.9417 127.9529 52.49349
v 11.94181 29.52758 104.987
v 0.000153044 29.52758 104.987
v 11.94165 127.9529 104.987
v 0.0001444394 127.9529 104.987
v 11.94181 29.52758 104.987
v 0.0001444394 127.9529 104.987
v 11.9417 127.9529 52.49349
v 0.0001909986 127.9529 52.49356
v 11.94165 127.9529 104.987
v 0.0001909986 127.9529 52.49356
v 11.9417 29.52758 52.49349
v 0.0001996032 29.52758 52.49356
v 11.9417 127.9529 52.49349
v 0.0001996032 29.52758 52.49356
v 11.94181 29.52758 104.987
v 0.000153044 29.52758 104.987
v 11.9417 29.52758 52.49349
v 0.000153044 29.52758 104.987
v 0.0002454837 157.4805 157.4805
v 0.0002592511 1.877314E-05 157.4805
v -0.0003519958 -1.877315E-05 1.877283E-05
v 0.0001444394 127.9529 104.987
v 0.0001996032 29.52758 52.49356
v 0.0001909986 127.9529 52.49356
v -0.0003657632 157.4805 1.877284E-05
v 0.0001195737 1.877313E-05 314.9605
v 0.0001549465 127.9529 262.4675
v 0.0002559913 157.4805 314.9605
v 0.0002454837 157.4805 157.4805
v 0.0001635512 29.52758 262.4674
v 0.0002015058 127.9529 209.974
v 0.0002101104 29.52758 209.974
v 0.0002592511 1.877314E-05 157.4805
v -2.010352E-05 1.877311E-05 472.4404
v 0.0001654546 127.9529 419.947
v -3.38709E-05 157.4805 472.4404
v 0.0002559913 157.4805 314.9605
v 0.0001740592 29.52762 419.947
v 0.0002120139 127.9529 367.4534
v 0.0002206185 29.52762 367.4534
v 0.0001195737 1.877313E-05 314.9605

vn -1 8.74228E-08 8.869529E-07
vn -1 8.74228E-08 8.869529E-07
vn -1 8.74228E-08 8.869529E-07
vn -1 8.74228E-08 8.869529E-07
vn 8.869529E-07 7.133813E-15 1
vn 8.869529E-07 7.133813E-15 1
vn 8.869529E-07 7.133813E-15 1
vn 8.869529E-07 7.133813E-15 1
vn -8.74228E-08 -1 8.467373E-14
vn -8.74228E-08 -1 8.467373E-14
vn -8.74228E-08 -1 8.467373E-14
vn -8.74228E-08 -1 8.467373E-14
vn -8.869529E-07 -7.133813E-15 -1
vn -8.869529E-07 -7.133813E-15 -1
vn -8.869529E-07 -7.133813E-15 -1
vn -8.869529E-07 -7.133813E-15 -1
vn 8.74228E-08 1 -8.467373E-14
vn 8.74228E-08 1 -8.467373E-14
vn 8.74228E-08 1 -8.467373E-14
vn 8.74228E-08 1 -8.467373E-14
vn -1 8.74228E-08 8.869529E-07
vn -1 8.74228E-08 8.869529E-07
vn -1 8.74228E-08 8.869529E-07
vn -1 8.74228E-08 8.869529E-07
vn 8.869529E-07 7.133813E-15 1
vn 8.869529E-07 7.133813E-15 1
vn 8.869529E-07 7.133813E-15 1
vn 8.869529E-07 7.133813E-15 1
vn -8.74228E-08 -1 8.467373E-14
vn -8.74228E-08 -1 8.467373E-14
vn -8.74228E-08 -1 8.467373E-14
vn -8.74228E-08 -1 8.467373E-14
vn -8.869529E-07 -7.133813E-15 -1
vn -8.869529E-07 -7.133813E-15 -1
vn -8.869529E-07 -7.133813E-15 -1
vn -8.869529E-07 -7.133813E-15 -1
vn 8.74228E-08 1 -8.467373E-14
vn 8.74228E-08 1 -8.467373E-14
vn 8.74228E-08 1 -8.467373E-14
vn 8.74228E-08 1 -8.467373E-14
vn -1 8.74228E-08 8.869529E-07
vn -1 8.74228E-08 8.869529E-07
vn -1 8.74228E-08 8.869529E-07
vn -1 8.74228E-08 8.869529E-07
vn -8.869529E-07 -7.133813E-15 -1
vn -8.869529E-07 -7.133813E-15 -1
vn -8.869529E-07 -7.133813E-15 -1
vn -8.869529E-07 -7.133813E-15 -1
vn -8.74228E-08 -1 8.467373E-14
vn -8.74228E-08 -1 8.467373E-14
vn -8.74228E-08 -1 8.467373E-14
vn -8.74228E-08 -1 8.467373E-14
vn 8.869529E-07 7.133813E-15 1
vn 8.869529E-07 7.133813E-15 1
vn 8.869529E-07 7.133813E-15 1
vn 8.869529E-07 7.133813E-15 1
vn 8.74228E-08 1 -8.467373E-14
vn 8.74228E-08 1 -8.467373E-14
vn 8.74228E-08 1 -8.467373E-14
vn 8.74228E-08 1 -8.467373E-14
vn -1 8.74228E-08 8.869529E-07
vn -1 8.74228E-08 8.869529E-07
vn -1 8.74228E-08 8.869529E-07
vn -1 8.74228E-08 8.869529E-07
vn -1 8.74228E-08 8.869529E-07
vn -1 8.74228E-08 8.869529E-07
vn -1 8.74228E-08 8.869529E-07
vn -1 8.74228E-08 8.869529E-07
vn -1 8.74228E-08 8.869529E-07
vn -1 8.74228E-08 8.869529E-07
vn -1 8.74228E-08 8.869529E-07
vn -1 8.74228E-08 8.869529E-07
vn -1 8.74228E-08 8.869529E-07
vn -1 8.74228E-08 8.869529E-07
vn -1 8.74228E-08 8.869529E-07
vn -1 8.74228E-08 8.869529E-07
vn -1 8.74228E-08 8.869529E-07
vn -1 8.74228E-08 8.869529E-07
vn -1 8.74228E-08 8.869529E-07
vn -1 8.74228E-08 8.869529E-07
vn -1 8.74228E-08 8.869529E-07
vn -1 8.74228E-08 8.869529E-07
vn -1 8.74228E-08 8.869529E-07
vn -1 8.74228E-08 8.869529E-07

vt 0.488965 0.6604495
vt 0.4643721 0.6143379
vt 0.488965 0.6143377
vt 0.4643721 0.6604495
vt 0.4945596 0.6143377
vt 0.488965 0.6604495
vt 0.488965 0.6143377
vt 0.4945596 0.6604495
vt 0.488965 0.6660439
vt 0.4643721 0.6604495
vt 0.488965 0.6604495
vt 0.4643721 0.6660439
vt 0.4587776 0.6604495
vt 0.4643721 0.6143379
vt 0.4643721 0.6604495
vt 0.4587776 0.6143379
vt 0.4643721 0.6087433
vt 0.488965 0.6143377
vt 0.4643721 0.6143379
vt 0.488965 0.6087433
vt 0.4888744 0.6604036
vt 0.4642814 0.6142918
vt 0.4888744 0.6142918
vt 0.4642814 0.6604036
vt 0.4944688 0.6142918
vt 0.4888744 0.6604036
vt 0.4888744 0.6142918
vt 0.4944688 0.6604036
vt 0.4888744 0.6659981
vt 0.4642814 0.6604036
vt 0.4888744 0.6604036
vt 0.4642814 0.6659981
vt 0.4586869 0.6604036
vt 0.4642814 0.6142918
vt 0.4642814 0.6604036
vt 0.4586869 0.6142918
vt 0.4642814 0.6086972
vt 0.4888744 0.6142918
vt 0.4642814 0.6142918
vt 0.4888743 0.6086972
vt 0.488965 0.6604495
vt 0.4643721 0.6143379
vt 0.4643721 0.6604495
vt 0.488965 0.6143377
vt 0.4945596 0.6143377
vt 0.488965 0.6604495
vt 0.4945596 0.6604495
vt 0.488965 0.6143377
vt 0.488965 0.6660439
vt 0.4643721 0.6604495
vt 0.4643721 0.6660439
vt 0.488965 0.6604495
vt 0.4587776 0.6604495
vt 0.4643721 0.6143379
vt 0.4587776 0.6143379
vt 0.4643721 0.6604495
vt 0.4643721 0.6087433
vt 0.488965 0.6143377
vt 0.488965 0.6087433
vt 0.4643721 0.6143379
vt 0.3014861 0.516595
vt 0.3260789 0.5765401
vt 0.3260789 0.5027615
vt 0.2523003 0.5027615
vt 0.3014861 0.5627067
vt 0.2768931 0.516595
vt 0.2768931 0.5627067
vt 0.2523003 0.5765401
vt 0.424356 0.5029441
vt 0.4489489 0.5628893
vt 0.424356 0.5767228
vt 0.4981347 0.5767228
vt 0.4489489 0.5167776
vt 0.4735418 0.5628893
vt 0.4735418 0.5167776
vt 0.4981347 0.5029441
vt 0.2523003 0.5027615
vt 0.2768931 0.5627067
vt 0.2523003 0.5765401
vt 0.3260789 0.5765401
vt 0.2768931 0.516595
vt 0.3014861 0.5627067
vt 0.3014861 0.516595
vt 0.3260789 0.5027615

g B5_MiddleFloorSide_6939_194
usemtl B5_MiddleFloorSide_6939_194
usemap B5_MiddleFloorSide_6939_194
f 1/1/1 3/3/3 2/2/2
f 2/2/2 4/4/4 1/1/1
f 5/5/5 7/7/7 6/6/6
f 6/6/6 8/8/8 5/5/5
f 9/9/9 11/11/11 10/10/10
f 10/10/10 12/12/12 9/9/9
f 13/13/13 15/15/15 14/14/14
f 14/14/14 16/16/16 13/13/13
f 17/17/17 19/19/19 18/18/18
f 18/18/18 20/20/20 17/17/17
f 21/21/21 23/23/23 22/22/22
f 22/22/22 24/24/24 21/21/21
f 25/25/25 27/27/27 26/26/26
f 26/26/26 28/28/28 25/25/25
f 29/29/29 31/31/31 30/30/30
f 30/30/30 32/32/32 29/29/29
f 33/33/33 35/35/35 34/34/34
f 34/34/34 36/36/36 33/33/33
f 37/37/37 39/39/39 38/38/38
f 38/38/38 40/40/40 37/37/37
f 41/41/41 43/43/43 42/42/42
f 42/42/42 44/44/44 41/41/41
f 45/45/45 47/47/47 46/46/46
f 46/46/46 48/48/48 45/45/45
f 49/49/49 51/51/51 50/50/50
f 50/50/50 52/52/52 49/49/49
f 53/53/53 55/55/55 54/54/54
f 54/54/54 56/56/56 53/53/53
f 57/57/57 59/59/59 58/58/58
f 58/58/58 60/60/60 57/57/57
f 61/61/61 63/63/63 62/62/62
f 64/64/64 63/63/63 61/61/61
f 62/62/62 65/65/65 61/61/61
f 61/61/61 66/66/66 64/64/64
f 67/67/67 65/65/65 62/62/62
f 64/64/64 66/66/66 67/67/67
f 62/62/62 68/68/68 67/67/67
f 67/67/67 68/68/68 64/64/64
f 69/69/69 71/71/71 70/70/70
f 70/70/70 71/71/71 72/72/72
f 70/70/70 73/73/73 69/69/69
f 72/72/72 74/74/74 70/70/70
f 69/69/69 73/73/73 75/75/75
f 75/75/75 74/74/74 72/72/72
f 75/75/75 76/76/76 69/69/69
f 72/72/72 76/76/76 75/75/75
f 77/77/77 79/79/79 78/78/78
f 78/78/78 79/79/79 80/80/80
f 78/78/78 81/81/81 77/77/77
f 82/82/82 78/78/78 80/80/80
f 77/77/77 81/81/81 83/83/83
f 83/83/83 82/82/82 80/80/80
f 83/83/83 84/84/84 77/77/77
f 80/80/80 84/84/84 83/83/83
