#B6_BricksWall3x_7386_36.obj

v 0.0003579018 157.4801 157.4687
v -0.001126385 0 -0.001148152
v -0.001126363 157.4805 -0.02209895
v 0.0002077057 -0.0003003699 157.4792
v 12.58364 31.23163 267.7665
v 12.58386 126.9647 202.1217
v 12.58364 126.9647 267.7665
v 12.58386 31.23163 202.1217
v -5.996435E-05 126.9647 267.7665
v 12.58364 31.23163 267.7665
v 12.58364 126.9647 267.7665
v -5.996435E-05 31.23163 267.7665
v -5.996435E-05 31.23163 267.7665
v 12.58386 31.23163 202.1217
v 12.58364 31.23163 267.7665
v 9.964786E-06 31.23163 202.1216
v 9.964786E-06 31.23163 202.1216
v 12.58386 126.9647 202.1217
v 12.58386 31.23163 202.1217
v 9.964786E-06 126.9647 202.1216
v 9.964786E-06 126.9647 202.1216
v 12.58364 126.9647 267.7665
v 12.58386 126.9647 202.1217
v -5.996435E-05 126.9647 267.7665
v -0.0002779958 157.4803 472.44
v -0.0008611623 -0.0001501849 314.9597
v -0.0007109661 157.4802 314.9492
v -0.0004281807 -0.0001501849 472.44
v 0.0003579018 157.4801 157.4687
v 9.964786E-06 31.23163 202.1216
v 0.0002077057 -0.0003003699 157.4792
v -0.0008611623 -0.0001501849 314.9597
v 9.964786E-06 126.9647 202.1216
v -5.996435E-05 31.23163 267.7665
v -5.996435E-05 126.9647 267.7665
v -0.0007109661 157.4802 314.9492

vn -1 0 9.867968E-06
vn -1 0 9.867968E-06
vn -1 0 9.867968E-06
vn -1 0 9.093572E-06
vn -1 0 -1.370907E-06
vn -1 0 -1.370907E-06
vn -1 0 -1.370907E-06
vn -1 0 -1.370907E-06
vn 1.370907E-06 0 -1
vn 1.370907E-06 0 -1
vn 1.370907E-06 0 -1
vn 1.370907E-06 0 -1
vn 0 0.9999997 0
vn 0 0.9999997 0
vn 0 0.9999997 0
vn 0 0.9999997 0
vn -1.370907E-06 0 1
vn -1.370907E-06 0 1
vn -1.370907E-06 0 1
vn -1.370907E-06 0 1
vn 0 -0.9999997 0
vn 0 -0.9999997 0
vn 0 -0.9999997 0
vn 0 -0.9999997 0
vn -1 0 -1.370907E-06
vn -1 0 -1.370907E-06
vn -1 0 -1.370907E-06
vn -1 0 -1.370907E-06
vn -1 0 -1.370907E-06
vn -1 0 -1.370907E-06
vn -1 0 -1.370907E-06
vn -1 0 -1.142828E-05
vn -1 0 -1.370907E-06
vn -1 0 -1.559728E-05
vn -1 0 -1.142828E-05
vn -1 0 -1.142828E-05

vt 0.07645015 0.5368916
vt 0.0009142791 0.5975695
vt 0.0009142791 0.5368916
vt 0.07645015 0.5975695
vt 0.1384832 0.6980714
vt 0.1745349 0.6733505
vt 0.1745349 0.6980714
vt 0.1384832 0.6733505
vt 0.1745349 0.7028103
vt 0.1384832 0.6980714
vt 0.1745349 0.6980714
vt 0.1384832 0.7028103
vt 0.1337443 0.6980714
vt 0.1384832 0.6733505
vt 0.1384832 0.6980714
vt 0.1337443 0.6733505
vt 0.1384832 0.6686116
vt 0.1745349 0.6733505
vt 0.1384832 0.6733505
vt 0.1745349 0.6686116
vt 0.1792738 0.6733505
vt 0.1745349 0.6980714
vt 0.1745349 0.6733505
vt 0.1792738 0.6980714
vt 0.07645015 0.5368916
vt 0.0009142791 0.5975695
vt 0.0009142791 0.5368916
vt 0.07645015 0.5975695
vt 0.171404 0.5885699
vt 0.1967492 0.6375906
vt 0.171404 0.6496493
vt 0.2474397 0.6496493
vt 0.1967492 0.6006284
vt 0.2220945 0.6375906
vt 0.2220945 0.6006284
vt 0.2474397 0.5885699

g B6_BricksWall3x_7386_36
usemtl B6_BricksWall3x_7386_36
usemap B6_BricksWall3x_7386_36
f 1/1/1 3/3/3 2/2/2
f 2/2/2 4/4/4 1/1/1
f 5/5/5 7/7/7 6/6/6
f 6/6/6 8/8/8 5/5/5
f 9/9/9 11/11/11 10/10/10
f 10/10/10 12/12/12 9/9/9
f 13/13/13 15/15/15 14/14/14
f 14/14/14 16/16/16 13/13/13
f 17/17/17 19/19/19 18/18/18
f 18/18/18 20/20/20 17/17/17
f 21/21/21 23/23/23 22/22/22
f 22/22/22 24/24/24 21/21/21
f 25/25/25 27/27/27 26/26/26
f 26/26/26 28/28/28 25/25/25
f 29/29/29 31/31/31 30/30/30
f 30/30/30 31/31/31 32/32/32
f 30/30/30 33/33/33 29/29/29
f 32/32/32 34/34/34 30/30/30
f 29/29/29 33/33/33 35/35/35
f 35/35/35 34/34/34 32/32/32
f 35/35/35 36/36/36 29/29/29
f 32/32/32 36/36/36 35/35/35
