#B6_BricksWall2x_7136_37.obj

v -0.000865542 157.4804 157.4676
v -0.001465297 -1.028364E-10 -0.002352622
v -0.001465272 157.4805 -0.0233103
v -0.0009969664 -6.116896E-05 157.4781
v -0.0002658116 157.4803 314.9584
v -0.0009969664 -6.116896E-05 157.4781
v -0.000865542 157.4804 157.4676
v -0.0005098621 -0.0001223378 314.9584

vn -1 0 -1.192093E-06
vn -1 0 -1.192093E-06
vn -1 0 -1.192093E-06
vn -1 0 -1.192093E-06
vn -1 0 -1.192093E-06
vn -1 0 -1.192093E-06
vn -1 0 -1.192093E-06
vn -1 0 -1.192093E-06

vt 0.07645015 0.5368916
vt 0.0009142791 0.5975695
vt 0.0009142791 0.5368916
vt 0.07645015 0.5975695
vt 0.07645015 0.5368916
vt 0.0009142791 0.5975695
vt 0.0009142791 0.5368916
vt 0.07645015 0.5975695

g B6_BricksWall2x_7136_37
usemtl B6_BricksWall2x_7136_37
usemap B6_BricksWall2x_7136_37
f 1/1/1 3/3/3 2/2/2
f 2/2/2 4/4/4 1/1/1
f 5/5/5 7/7/7 6/6/6
f 6/6/6 8/8/8 5/5/5
