#B6_BricksWall2x_7183_7.obj

v -0.0008070284 157.4804 157.4678
v -0.001465299 0 -0.001976162
v -0.001465276 157.4805 -0.02292696
v -0.0009290649 -7.509247E-05 157.4783
v -0.0001487807 157.4803 314.9586
v -0.0009290649 -7.509247E-05 157.4783
v -0.0008070284 157.4804 157.4678
v -0.0003928312 -0.0001126387 314.9586

vn -1 0 -9.536741E-07
vn -1 0 -9.536741E-07
vn -1 0 -9.536741E-07
vn -1 0 -9.536741E-07
vn -1 0 -9.536741E-07
vn -1 0 -9.536741E-07
vn -1 0 -9.536741E-07
vn -1 0 -9.536741E-07

vt 0.07645015 0.5368916
vt 0.0009142791 0.5975695
vt 0.0009142791 0.5368916
vt 0.07645015 0.5975695
vt 0.07645015 0.5368916
vt 0.0009142791 0.5975695
vt 0.0009142791 0.5368916
vt 0.07645015 0.5975695

g B6_BricksWall2x_7183_7
usemtl B6_BricksWall2x_7183_7
usemap B6_BricksWall2x_7183_7
f 1/1/1 3/3/3 2/2/2
f 2/2/2 4/4/4 1/1/1
f 5/5/5 7/7/7 6/6/6
f 6/6/6 8/8/8 5/5/5
