#B6_Window2x_7037_14.obj

v 104.9846 133.3335 -21.46662
v 52.49137 24.147 -21.46675
v 52.49137 133.3335 -21.46675
v 104.9846 24.147 -21.46662
v 104.9844 24.147 0.0007752325
v 104.9846 133.3335 -21.46662
v 104.9844 133.3335 0.0007752325
v 104.9846 24.147 -21.46662
v 104.9844 133.3335 0.0007752325
v 52.49137 133.3335 -21.46675
v 52.49134 133.3335 0.0006415509
v 104.9846 133.3335 -21.46662
v 52.49134 133.3335 0.0006415509
v 52.49137 24.147 -21.46675
v 52.49134 24.147 0.0006415509
v 52.49137 133.3335 -21.46675
v 52.49134 24.147 0.0006415509
v 104.9846 24.147 -21.46662
v 104.9844 24.147 0.0007752325
v 52.49137 24.147 -21.46675
v 262.4631 133.3335 -21.46622
v 209.9699 24.147 -21.46635
v 209.9699 133.3335 -21.46635
v 262.4631 24.147 -21.46622
v 262.4631 24.147 0.001176276
v 262.4631 133.3335 -21.46622
v 262.4631 133.3335 0.001176276
v 262.4631 24.147 -21.46622
v 262.4631 133.3335 0.001176276
v 209.9699 133.3335 -21.46635
v 209.9698 133.3335 0.001042595
v 262.4631 133.3335 -21.46622
v 209.9698 133.3335 0.001042595
v 209.9699 24.147 -21.46635
v 209.9698 24.147 0.001042595
v 209.9699 133.3335 -21.46635
v 209.9698 24.147 0.001042595
v 262.4631 24.147 -21.46622
v 262.4631 24.147 0.001176276
v 209.9699 24.147 -21.46635
v 209.9698 133.3335 0.001042595
v 157.4762 0 0.000908912
v 157.4769 157.4805 0.0009089131
v 314.9553 157.4805 0.001291183
v 209.9698 24.147 0.001042595
v 262.4631 133.3335 0.001176276
v 262.4631 24.147 0.001176276
v 314.9547 0 0.001291182
v 104.9844 24.147 0.0007752325
v 157.4769 157.4805 0.0009089131
v 157.4762 0 0.000908912
v -0.002352621 0 0.0005078685
v 104.9844 133.3335 0.0007752325
v 52.49134 24.147 0.0006415509
v 52.49134 133.3335 0.0006415509
v -0.001376419 157.4805 0.0005078699

vn -1 0 -1.035964E-06
vn -1 0 -1.035964E-06
vn -1 0 -1.035964E-06
vn -1 0 -1.035964E-06
vn 1.035964E-06 0 -1
vn 1.035964E-06 0 -1
vn 1.035964E-06 0 -1
vn 1.035964E-06 0 -1
vn 0 -0.9999999 0
vn 0 -0.9999999 0
vn 0 -0.9999999 0
vn 0 -0.9999999 0
vn -1.035964E-06 0 1
vn -1.035964E-06 0 1
vn -1.035964E-06 0 1
vn -1.035964E-06 0 1
vn 0 0.9999999 0
vn 0 0.9999999 0
vn 0 0.9999999 0
vn 0 0.9999999 0
vn -1 0 -1.035964E-06
vn -1 0 -1.035964E-06
vn -1 0 -1.035964E-06
vn -1 0 -1.035964E-06
vn 1.035964E-06 0 -1
vn 1.035964E-06 0 -1
vn 1.035964E-06 0 -1
vn 1.035964E-06 0 -1
vn 0 -0.9999999 0
vn 0 -0.9999999 0
vn 0 -0.9999999 0
vn 0 -0.9999999 0
vn -1.035964E-06 0 1
vn -1.035964E-06 0 1
vn -1.035964E-06 0 1
vn -1.035964E-06 0 1
vn 0 0.9999999 0
vn 0 0.9999999 0
vn 0 0.9999999 0
vn 0 0.9999999 0
vn -1 0 -1.035964E-06
vn -1 0 -1.035964E-06
vn -1 0 -1.035964E-06
vn -1 0 -1.035964E-06
vn -1 0 -1.035964E-06
vn -1 0 -1.035964E-06
vn -1 0 -1.035964E-06
vn -1 0 -1.035964E-06
vn -1 0 -1.035964E-06
vn -1 0 -1.035964E-06
vn -1 0 -1.035964E-06
vn -1 0 -1.035964E-06
vn -1 0 -1.035964E-06
vn -1 0 -1.035964E-06
vn -1 0 -1.035964E-06
vn -1 0 -1.035964E-06

vt 0.05121158 0.7203199
vt 0.009332194 0.7404541
vt 0.05121158 0.7404541
vt 0.009332194 0.7203199
vt 0.009332194 0.7120859
vt 0.05121158 0.7203199
vt 0.05121158 0.7120859
vt 0.009332194 0.7203199
vt 0.05944561 0.72032
vt 0.05121158 0.7404541
vt 0.05944561 0.7404541
vt 0.05121158 0.7203199
vt 0.05121158 0.7486881
vt 0.009332194 0.7404541
vt 0.009332194 0.7486881
vt 0.05121158 0.7404541
vt 0.001098235 0.7404541
vt 0.009332194 0.7203199
vt 0.001098235 0.7203199
vt 0.009332194 0.7404541
vt 0.05121158 0.7203199
vt 0.009332194 0.7404541
vt 0.05121158 0.7404541
vt 0.009332194 0.7203199
vt 0.009332194 0.7120859
vt 0.05121158 0.7203199
vt 0.05121158 0.7120859
vt 0.009332194 0.7203199
vt 0.05944561 0.72032
vt 0.05121158 0.7404541
vt 0.05944561 0.7404541
vt 0.05121158 0.7203199
vt 0.05121158 0.7486881
vt 0.009332194 0.7404541
vt 0.009332194 0.7486881
vt 0.05121158 0.7404541
vt 0.001098235 0.7404541
vt 0.009332194 0.7203199
vt 0.001098235 0.7203199
vt 0.009332194 0.7404541
vt 0.05256305 0.6909579
vt 0.001421892 0.7110921
vt 0.06182481 0.7110921
vt 0.06182481 0.6506896
vt 0.01068366 0.6909579
vt 0.05256305 0.6708237
vt 0.01068366 0.6708237
vt 0.001421892 0.6506896
vt 0.01068366 0.6708237
vt 0.06182481 0.6506896
vt 0.001421892 0.6506896
vt 0.001421892 0.7110921
vt 0.05256305 0.6708237
vt 0.01068366 0.6909579
vt 0.05256305 0.6909579
vt 0.06182481 0.7110921

g B6_Window2x_7037_14
usemtl B6_Window2x_7037_14
usemap B6_Window2x_7037_14
f 1/1/1 3/3/3 2/2/2
f 2/2/2 4/4/4 1/1/1
f 5/5/5 7/7/7 6/6/6
f 6/6/6 8/8/8 5/5/5
f 9/9/9 11/11/11 10/10/10
f 10/10/10 12/12/12 9/9/9
f 13/13/13 15/15/15 14/14/14
f 14/14/14 16/16/16 13/13/13
f 17/17/17 19/19/19 18/18/18
f 18/18/18 20/20/20 17/17/17
f 21/21/21 23/23/23 22/22/22
f 22/22/22 24/24/24 21/21/21
f 25/25/25 27/27/27 26/26/26
f 26/26/26 28/28/28 25/25/25
f 29/29/29 31/31/31 30/30/30
f 30/30/30 32/32/32 29/29/29
f 33/33/33 35/35/35 34/34/34
f 34/34/34 36/36/36 33/33/33
f 37/37/37 39/39/39 38/38/38
f 38/38/38 40/40/40 37/37/37
f 41/41/41 43/43/43 42/42/42
f 44/44/44 43/43/43 41/41/41
f 42/42/42 45/45/45 41/41/41
f 41/41/41 46/46/46 44/44/44
f 47/47/47 45/45/45 42/42/42
f 44/44/44 46/46/46 47/47/47
f 42/42/42 48/48/48 47/47/47
f 47/47/47 48/48/48 44/44/44
f 49/49/49 51/51/51 50/50/50
f 52/52/52 51/51/51 49/49/49
f 50/50/50 53/53/53 49/49/49
f 49/49/49 54/54/54 52/52/52
f 55/55/55 53/53/53 50/50/50
f 52/52/52 54/54/54 55/55/55
f 50/50/50 56/56/56 55/55/55
f 55/55/55 56/56/56 52/52/52
