#Roof_CenterPart_7487_205.obj

v -157.4803 -0.0001917192 -16.97206
v -157.4803 157.4804 -16.97206
v 3.953972E-05 157.4802 -16.97206
v 4.153329E-05 -0.0001146329 -16.97206

vn 1.192093E-07 1 2.984279E-13
vn 1.192093E-07 1 2.984279E-13
vn 1.192093E-07 1 2.984279E-13
vn 1.192093E-07 1 2.984279E-13

vt 0.9635664 0.2805889
vt 0.9635664 0.3159554
vt 0.9993008 0.3159554
vt 0.9993008 0.2805889

g Roof_CenterPart_7487_205
usemtl Roof_CenterPart_7487_205
usemap Roof_CenterPart_7487_205
f 1/1/1 3/3/3 2/2/2
f 1/1/1 4/4/4 3/3/3
