#Roof_CenterPart_6503_69.obj

v -157.4803 1.759779E-05 -16.97206
v -157.4803 157.4804 -16.97206
v -8.407678E-07 157.4804 -16.97206
v -2.045444E-05 2.485169E-05 -16.97206

vn -2.361163E-13 1 1.8425E-07
vn -2.361163E-13 1 1.8425E-07
vn -2.361163E-13 1 1.8425E-07
vn -2.361163E-13 1 1.8425E-07

vt 0.9635664 0.2805889
vt 0.9635664 0.3159554
vt 0.9993008 0.3159554
vt 0.9993008 0.2805889

g Roof_CenterPart_6503_69
usemtl Roof_CenterPart_6503_69
usemap Roof_CenterPart_6503_69
f 1/1/1 3/3/3 2/2/2
f 1/1/1 4/4/4 3/3/3
