#Roof_SidePart_6530_5.obj

v -157.4798 0.0002760041 -1.877312E-05
v -157.4798 31.49631 -1.877312E-05
v 0.0005344697 31.49659 -1.877312E-05
v 0.000589553 0.0005520077 -1.877312E-05
v 0.0005344697 31.49659 -16.97208
v -157.4798 31.49631 -16.97208
v -157.4801 157.4806 -16.97208
v 0.0003135494 157.4809 -16.97208
v -157.4798 31.49631 -1.877312E-05
v -157.4798 31.49631 -16.97208
v 0.0005344697 31.49659 -16.97208
v 0.0005344697 31.49659 -1.877312E-05

vn -1.192093E-07 1 1.136868E-13
vn -1.192093E-07 1 1.136868E-13
vn -1.192093E-07 1 1.136868E-13
vn -1.192093E-07 1 1.136868E-13
vn -1.192093E-07 1 1.136868E-13
vn -1.192093E-07 1 1.136868E-13
vn -1.192093E-07 1 1.136868E-13
vn -1.192093E-07 1 1.136868E-13
vn -1 -1.192093E-07 9.536743E-07
vn -1 -1.192093E-07 9.536743E-07
vn -1 -1.192093E-07 9.536743E-07
vn -1 -1.192093E-07 9.536743E-07

vt 0.9636177 0.3604518
vt 0.9636177 0.3676668
vt 0.9995411 0.3676668
vt 0.9995411 0.3604518
vt 0.9993008 0.2510202
vt 0.9632257 0.2510202
vt 0.9632257 0.2798803
vt 0.9993008 0.2798803
vt 0.9296116 0.2882376
vt 0.9334995 0.2882376
vt 0.9334995 0.2521625
vt 0.9296116 0.2521625

g Roof_SidePart_6530_5
usemtl Roof_SidePart_6530_5
usemap Roof_SidePart_6530_5
f 1/1/1 3/3/3 2/2/2
f 1/1/1 4/4/4 3/3/3
f 5/5/5 7/7/7 6/6/6
f 5/5/5 8/8/8 7/7/7
f 9/9/9 11/11/11 10/10/10
f 9/9/9 12/12/12 11/11/11
