#Roof_SidePart_7170_30.obj

v -157.4816 -0.0004327772 2.649909E-20
v -157.4815 31.49562 -1.928487E-15
v -0.001185498 31.4952 -1.928462E-15
v -0.001223244 -0.0008280096 5.069929E-20
v -0.001185498 31.4952 -16.97202
v -157.4815 31.4956 -16.97202
v -157.4812 157.4799 -16.9721
v -0.0008843308 157.4795 -16.9721
v -157.4815 31.49562 -1.928487E-15
v -157.4815 31.4956 -16.97202
v -0.001185498 31.4952 -16.97202
v -0.001185498 31.4952 -1.928462E-15

vn 1.192093E-07 1 1.563194E-13
vn 1.192093E-07 1 1.563194E-13
vn 1.192093E-07 1 1.563194E-13
vn 1.192093E-07 1 1.563194E-13
vn 1.192093E-07 1 1.563194E-13
vn 1.192093E-07 1 1.563194E-13
vn 1.192093E-07 1 1.563194E-13
vn 1.192093E-07 1 1.563194E-13
vn 1 -1.192093E-07 1.311302E-06
vn 1 -1.192093E-07 1.311302E-06
vn 1 -1.192093E-07 1.311302E-06
vn 1 -1.192093E-07 1.311302E-06

vt 0.9636177 0.3604518
vt 0.9636177 0.3676668
vt 0.9995411 0.3676668
vt 0.9995411 0.3604518
vt 0.9993008 0.2510202
vt 0.9632257 0.2510202
vt 0.9632257 0.2798803
vt 0.9993008 0.2798803
vt 0.9296116 0.2882376
vt 0.9334995 0.2882376
vt 0.9334995 0.2521625
vt 0.9296116 0.2521625

g Roof_SidePart_7170_30
usemtl Roof_SidePart_7170_30
usemap Roof_SidePart_7170_30
f 1/1/1 3/3/3 2/2/2
f 1/1/1 4/4/4 3/3/3
f 5/5/5 7/7/7 6/6/6
f 5/5/5 8/8/8 7/7/7
f 9/9/9 11/11/11 10/10/10
f 9/9/9 12/12/12 11/11/11
