#Roof_CornerPart_6709_97.obj

v 31.49603 157.4803 -16.97202
v 157.4804 31.4961 -16.97202
v 31.49608 31.49605 -16.97202
v 157.4803 157.4804 -16.97202
v 31.49608 31.49605 -1.928513E-15
v -6.589968E-06 157.4803 -9.64257E-15
v 31.49603 157.4803 -9.642571E-15
v 5.631935E-05 2.249812E-11 -1.377567E-27
v 157.4804 6.290934E-05 -3.851959E-21
v 157.4804 31.4961 -1.928516E-15
v 31.49603 157.4803 -9.642571E-15
v 31.49608 31.49605 -16.97202
v 31.49608 31.49605 -1.928513E-15
v 31.49603 157.4803 -16.97202
v 31.49608 31.49605 -1.928513E-15
v 157.4804 31.4961 -16.97202
v 157.4804 31.4961 -1.928516E-15
v 31.49608 31.49605 -16.97202

vn 0 1 1.192093E-07
vn 0 1 1.192093E-07
vn 0 1 1.192093E-07
vn 0 1 1.192093E-07
vn 0 1 1.192093E-07
vn 0 1 1.192093E-07
vn 0 1 1.192093E-07
vn 0 1 1.192093E-07
vn 0 1 1.192093E-07
vn 0 1 1.192093E-07
vn 2.980232E-07 1.192093E-07 -1
vn 2.980232E-07 1.192093E-07 -1
vn 2.980232E-07 1.192093E-07 -1
vn 2.980232E-07 1.192093E-07 -1
vn -1 0 -3.278255E-07
vn -1 0 -3.278255E-07
vn -1 0 -3.278255E-07
vn -1 0 -3.278255E-07

vt 0.9343655 0.2798803
vt 0.9632257 0.2510202
vt 0.9343655 0.2510202
vt 0.9632257 0.2798803
vt 0.9347576 0.3676668
vt 0.9275426 0.396527
vt 0.9347576 0.396527
vt 0.9275426 0.3604518
vt 0.9636177 0.3604518
vt 0.9636177 0.3676668
vt 0.9296116 0.3459578
vt 0.9334995 0.3170977
vt 0.9296116 0.3170977
vt 0.9334994 0.3459578
vt 0.9296116 0.3170977
vt 0.9334995 0.2882376
vt 0.9296116 0.2882376
vt 0.9334995 0.3170977

g Roof_CornerPart_6709_97
usemtl Roof_CornerPart_6709_97
usemap Roof_CornerPart_6709_97
f 1/1/1 3/3/3 2/2/2
f 2/2/2 4/4/4 1/1/1
f 5/5/5 7/7/7 6/6/6
f 6/6/6 8/8/8 5/5/5
f 5/5/5 8/8/8 9/9/9
f 9/9/9 10/10/10 5/5/5
f 11/11/11 13/13/13 12/12/12
f 12/12/12 14/14/14 11/11/11
f 15/15/15 17/17/17 16/16/16
f 16/16/16 18/18/18 15/15/15
