#Roof_CenterPart_7685_80.obj

v -157.4803 3.355824E-05 -16.9721
v -157.4803 157.4803 -16.9721
v 3.953918E-05 157.4804 -16.9721
v -3.355935E-05 -3.954066E-05 -16.9721

vn 8.995411E-08 1 2.251906E-13
vn 8.995411E-08 1 2.251906E-13
vn 8.995411E-08 1 2.251906E-13
vn 8.995411E-08 1 2.251906E-13

vt 0.9635664 0.2805889
vt 0.9635664 0.3159554
vt 0.9993008 0.3159554
vt 0.9993008 0.2805889

g Roof_CenterPart_7685_80
usemtl Roof_CenterPart_7685_80
usemap Roof_CenterPart_7685_80
f 1/1/1 3/3/3 2/2/2
f 1/1/1 4/4/4 3/3/3
