#Roof_CornerPart_6523_121.obj

v 31.49589 157.4803 -16.97204
v 157.4803 31.49622 -16.97196
v 31.49604 31.49607 -16.97203
v 157.4802 157.4805 -16.97196
v 31.49604 31.49607 -1.058457E-05
v -0.00015018 157.4803 -1.537659E-05
v 31.49589 157.4803 2.216962E-05
v 4.923394E-09 1.683999E-10 -1.877311E-05
v 157.4803 0.0001877314 9.38654E-05
v 157.4803 31.49622 0.000102054
v 31.49589 157.4803 2.216962E-05
v 31.49604 31.49607 -16.97203
v 31.49604 31.49607 -1.058457E-05
v 31.49589 157.4803 -16.97204
v 31.49604 31.49607 -1.058457E-05
v 157.4803 31.49622 -16.97196
v 157.4803 31.49622 0.000102054
v 31.49604 31.49607 -16.97203

vn -7.15255E-07 1 9.536753E-07
vn -7.15255E-07 1 9.536753E-07
vn -7.15255E-07 1 9.536753E-07
vn -7.15255E-07 1 9.536753E-07
vn -7.15255E-07 1 9.536753E-07
vn -7.15255E-07 1 9.536753E-07
vn -7.15255E-07 1 9.536753E-07
vn -7.15255E-07 1 9.536753E-07
vn -7.15255E-07 1 9.536753E-07
vn -7.15255E-07 1 9.536753E-07
vn 1 7.152556E-07 -1.192093E-06
vn 1 7.152556E-07 -1.192093E-06
vn 1 7.152556E-07 -1.192093E-06
vn 1 7.152556E-07 -1.192093E-06
vn -1.192093E-06 9.536743E-07 -1
vn -1.192093E-06 9.536743E-07 -1
vn -1.192093E-06 9.536743E-07 -1
vn -1.192093E-06 9.536743E-07 -1

vt 0.9343655 0.2798803
vt 0.9632257 0.2510202
vt 0.9343655 0.2510202
vt 0.9632257 0.2798803
vt 0.9347576 0.3676668
vt 0.9275426 0.396527
vt 0.9347576 0.396527
vt 0.9275426 0.3604518
vt 0.9636177 0.3604518
vt 0.9636177 0.3676668
vt 0.9296116 0.3459578
vt 0.9334995 0.3170977
vt 0.9296116 0.3170977
vt 0.9334994 0.3459578
vt 0.9296116 0.3170977
vt 0.9334995 0.2882376
vt 0.9296116 0.2882376
vt 0.9334995 0.3170977

g Roof_CornerPart_6523_121
usemtl Roof_CornerPart_6523_121
usemap Roof_CornerPart_6523_121
f 1/1/1 3/3/3 2/2/2
f 2/2/2 4/4/4 1/1/1
f 5/5/5 7/7/7 6/6/6
f 6/6/6 8/8/8 5/5/5
f 5/5/5 8/8/8 9/9/9
f 9/9/9 10/10/10 5/5/5
f 11/11/11 13/13/13 12/12/12
f 12/12/12 14/14/14 11/11/11
f 15/15/15 17/17/17 16/16/16
f 16/16/16 18/18/18 15/15/15
