#Roof_SidePart_7486_127.obj

v -157.4803 -0.0002045108 1.928513E-14
v -157.4803 31.49598 2.121365E-14
v 5.592142E-05 31.49606 1.928507E-15
v 5.632043E-05 -0.0001274245 -1.469928E-20
v 5.592142E-05 31.49606 -16.97206
v -157.4803 31.49598 -16.97206
v -157.4803 157.4801 -16.97206
v 5.432685E-05 157.4802 -16.97206
v -157.4803 31.49598 2.121365E-14
v -157.4803 31.49598 -16.97206
v 5.592142E-05 31.49606 -16.97206
v 5.592142E-05 31.49606 1.928507E-15

vn 1.192093E-07 0.9999998 2.984278E-13
vn 1.192093E-07 0.9999998 2.984278E-13
vn 1.192093E-07 0.9999998 2.984278E-13
vn 1.192093E-07 0.9999998 2.984278E-13
vn 1.192093E-07 0.9999998 2.984278E-13
vn 1.192093E-07 0.9999998 2.984278E-13
vn 1.192093E-07 0.9999998 2.984278E-13
vn 1.192093E-07 0.9999998 2.984278E-13
vn -0.9999999 -1.192092E-07 -2.503394E-06
vn -0.9999999 -1.192092E-07 -2.503394E-06
vn -0.9999999 -1.192092E-07 -2.503394E-06
vn -0.9999999 -1.192092E-07 -2.503394E-06

vt 0.9636177 0.3604518
vt 0.9636177 0.3676668
vt 0.9995411 0.3676668
vt 0.9995411 0.3604518
vt 0.9993008 0.2510202
vt 0.9632257 0.2510202
vt 0.9632257 0.2798803
vt 0.9993008 0.2798803
vt 0.9296116 0.2882376
vt 0.9334995 0.2882376
vt 0.9334995 0.2521625
vt 0.9296116 0.2521625

g Roof_SidePart_7486_127
usemtl Roof_SidePart_7486_127
usemap Roof_SidePart_7486_127
f 1/1/1 3/3/3 2/2/2
f 1/1/1 4/4/4 3/3/3
f 5/5/5 7/7/7 6/6/6
f 5/5/5 8/8/8 7/7/7
f 9/9/9 11/11/11 10/10/10
f 9/9/9 12/12/12 11/11/11
