#UModeler_Object_(1)_6636_1.obj

v -0.003488127 3.14119E-07 -3.491923E-08
v -0.003488127 3.14119E-07 0.09001173
v -0.003488127 -0.6822342 0.09001173
v -0.003488127 -0.6822342 -3.491923E-08
v -7.642445E-09 3.14119E-07 -3.491923E-08
v -7.642445E-09 3.14119E-07 0.09001173
v -0.003488127 3.14119E-07 0.09001173
v -0.003488127 3.14119E-07 -3.491923E-08
v -7.642445E-09 3.14119E-07 0.09001173
v -7.642445E-09 -0.6822342 0.09001173
v -0.003488127 -0.6822342 0.09001173
v -0.003488127 3.14119E-07 0.09001173
v -7.642445E-09 -0.6822342 0.09001173
v -7.642445E-09 -0.6822342 -3.491923E-08
v -0.003488127 -0.6822342 -3.491923E-08
v -0.003488127 -0.6822342 0.09001173
v -7.642445E-09 -0.6822342 -3.491923E-08
v -7.642445E-09 3.14119E-07 -3.491923E-08
v -0.003488127 3.14119E-07 -3.491923E-08
v -0.003488127 -0.6822342 -3.491923E-08
v -7.642445E-09 3.14119E-07 -3.491923E-08
v -7.642445E-09 -0.6822342 -3.491923E-08
v -7.642445E-09 -0.6822342 0.09001173
v -7.642445E-09 3.14119E-07 0.09001173

vn -1 0 0
vn -1 0 0
vn -1 0 0
vn -1 0 0
vn 0 1 0
vn 0 1 0
vn 0 1 0
vn 0 1 0
vn 0 0 1
vn 0 0 1
vn 0 0 1
vn 0 0 1
vn 0 -1 0
vn 0 -1 0
vn 0 -1 0
vn 0 -1 0
vn 0 0 -1
vn 0 0 -1
vn 0 0 -1
vn 0 0 -1
vn 1 0 5.812941E-09
vn 1 0 5.812941E-09
vn 1 0 5.812941E-09
vn 1 0 5.812941E-09

vt -5.960464E-08 2.384186E-07
vt 0.09001172 2.384186E-07
vt 0.09001172 -0.6822342
vt -5.960464E-08 -0.6822342
vt 0 -5.960464E-08
vt 0 0.09001172
vt 0.003488123 0.09001172
vt 0.003488123 -5.960464E-08
vt 0 2.384186E-07
vt 0 -0.6822342
vt -0.003488123 -0.6822342
vt -0.003488123 2.384186E-07
vt 0 -0.09001172
vt 0 2.980232E-08
vt -0.003488123 2.980232E-08
vt -0.003488123 -0.09001172
vt 0 -0.6822342
vt 0 2.384186E-07
vt 0.003488123 2.384186E-07
vt 0.003488123 -0.6822342
vt 2.980232E-08 2.384186E-07
vt 2.980232E-08 -0.6822342
vt -0.09001172 -0.6822342
vt -0.09001172 2.384186E-07

g UModeler_Object_(1)_6636_1
usemtl UModeler_Object_(1)_6636_1
usemap UModeler_Object_(1)_6636_1
f 1/1/1 3/3/3 2/2/2
f 1/1/1 4/4/4 3/3/3
f 5/5/5 7/7/7 6/6/6
f 5/5/5 8/8/8 7/7/7
f 9/9/9 11/11/11 10/10/10
f 9/9/9 12/12/12 11/11/11
f 13/13/13 15/15/15 14/14/14
f 13/13/13 16/16/16 15/15/15
f 17/17/17 19/19/19 18/18/18
f 17/17/17 20/20/20 19/19/19
f 21/21/21 23/23/23 22/22/22
f 21/21/21 24/24/24 23/23/23
