#wall_2_(1)_7866_91.obj

v -3.338416 -5.212103E-07 6.462569E-07
v 3.338417 5.212103E-07 -6.46257E-07
v 3.338417 2.706079 -6.462571E-07
v -3.338416 2.706077 6.462569E-07

vn -1 9.710831E-15 -8.562779E-08
vn -1 9.710831E-15 -8.562779E-08
vn -1 9.710831E-15 -8.562779E-08
vn -1 9.710831E-15 -8.562779E-08

vt 1.77 5.066395E-07
vt 1.055002E-07 -5.960464E-08
vt 0 0.9999994
vt 1.77 0.9999999

g wall_2_(1)_7866_91
usemtl wall_2_(1)_7866_91
usemap wall_2_(1)_7866_91
f 1/1/1 3/3/3 2/2/2
f 1/1/1 4/4/4 3/3/3
