#Wall_6586_0.obj

v 0 0 -6.54965
v 0.08895111 0 -6.54965
v 0.08895111 3.853979 -6.54965
v 0 3.853979 -6.54965
v 0.08895111 -1.490116E-08 0.1191664
v 0 -1.490116E-08 0.1191664
v 0 3.853979 0.1191659
v 0.08895111 3.853979 0.1191659
v 0 -1.490116E-08 0.1191664
v 0.08895111 -1.490116E-08 0.1191664
v 0.08895111 0 -6.54965
v 0 0 -6.54965
v 0.08895111 0 -6.54965
v 0.08895111 -1.490116E-08 0.1191664
v 0.08895111 3.853979 0.1191659
v 0.08895111 3.853979 -6.54965
v 0 -1.490116E-08 0.1191664
v 0 0 -6.54965
v 0 3.853979 -6.54965
v 0 3.853979 0.1191659
v 0 3.853979 0.1191659
v 0 3.853979 -6.54965
v 0.08895111 3.853979 -6.54965
v 0.08895111 3.853979 0.1191659

vn 0 0 -1
vn 0 0 -1
vn 0 0 -1
vn 0 0 -1
vn 0 1.043938E-07 1
vn 0 1.043938E-07 1
vn 0 1.043938E-07 1
vn 0 1.043938E-07 1
vn 0 -1 -2.234454E-09
vn 0 -1 -2.234454E-09
vn 0 -1 -2.234454E-09
vn 0 -1 -2.234454E-09
vn 1 0 0
vn 1 0 0
vn 1 0 0
vn 1 0 0
vn -1 0 0
vn -1 0 0
vn -1 0 0
vn -1 0 0
vn 0 1 0
vn 0 1 0
vn 0 1 0
vn 0 1 0

vt 0 0
vt -0.08895159 0
vt -0.08895159 3.853979
vt 0 3.853979
vt 0.08895159 0
vt 0 0
vt 0 3.853979
vt 0.08895159 3.853979
vt 0 -0.1191664
vt 0.08895159 -0.1191664
vt 0.08895159 6.54965
vt 0 6.54965
vt 6.54965 0
vt -0.1191664 0
vt -0.119166 3.853979
vt 6.54965 3.853979
vt 0.1191664 0
vt -6.54965 0
vt -6.54965 3.853979
vt 0.119166 3.853979
vt 0 0.119166
vt 0 -6.54965
vt -0.08895159 -6.54965
vt -0.08895159 0.119166

g Wall_6586_0
usemtl Wall_6586_0
usemap Wall_6586_0
f 1/1/1 3/3/3 2/2/2
f 1/1/1 4/4/4 3/3/3
f 5/5/5 7/7/7 6/6/6
f 5/5/5 8/8/8 7/7/7
f 9/9/9 11/11/11 10/10/10
f 9/9/9 12/12/12 11/11/11
f 13/13/13 15/15/15 14/14/14
f 13/13/13 16/16/16 15/15/15
f 17/17/17 19/19/19 18/18/18
f 17/17/17 20/20/20 19/19/19
f 21/21/21 23/23/23 22/22/22
f 21/21/21 24/24/24 23/23/23
